/vscmnt/brussel_pixiu_data/_data_brussel/112/vsc11236/PredSimResults/SUBJ06mtu3D/weighted-trackIG/worker_04.mot
version=1
nRows=9
nColumns=50
inDegrees=yes
endheader
                time	         pelvis_tilt	         pelvis_list	     pelvis_rotation	           pelvis_tx	           pelvis_ty	           pelvis_tz	       hip_flexion_r	     hip_adduction_r	      hip_rotation_r	        knee_angle_r	       ankle_angle_r	         mtp_angle_r	       hip_flexion_l	     hip_adduction_l	      hip_rotation_l	        knee_angle_l	       ankle_angle_l	         mtp_angle_l	    lumbar_extension	      lumbar_bending	     lumbar_rotation	 ercspn_r/activation	 intobl_r/activation	 extobl_r/activation	    abd_r/activation	    add_r/activation	hamstrings_r/activation	bifemsh_r/activation	glut_max_r/activation	iliopsoas_r/activation	rect_fem_r/activation	  vasti_r/activation	gastroc_r/activation	 soleus_r/activation	tib_ant_r/activation	 ercspn_l/activation	 intobl_l/activation	 extobl_l/activation	    abd_l/activation	    add_l/activation	hamstrings_l/activation	bifemsh_l/activation	glut_max_l/activation	iliopsoas_l/activation	rect_fem_l/activation	  vasti_l/activation	gastroc_l/activation	 soleus_l/activation	tib_ant_l/activation	
          0.00000000	         -7.66202492	         -4.43476011	          9.74849059	          0.00000000	          0.92726750	         -0.01734851	         31.02402236	          0.16384279	         -6.33023878	         -1.01331537	          6.68865311	          0.21044558	        -10.50845607	         -4.60298882	          8.99979342	         -5.08461517	         10.48427246	         28.18146058	         -1.96751512	          2.18417920	         -3.09441594	          0.10740448	          0.17169633	          0.03206179	          0.00999999	          0.08512689	          0.12169850	          0.24088086	          0.00999999	          0.12255662	          0.00999999	          0.00999999	          0.02744618	          0.00999999	          0.28054157	          0.04974854	          0.00999999	          0.00999999	          0.06971290	          0.01200228	          0.01942992	          0.16157578	          0.07053823	          0.49209453	          0.00999999	          0.00999999	          0.39370233	          0.34131717	          0.02055990	
          0.01285890	         -7.77909192	         -4.37489841	          9.79399691	          0.01703176	          0.92497759	         -0.01692783	         31.30602422	          0.29481083	         -5.89657911	         -2.92298755	          6.29589119	          0.21524805	        -10.84984844	         -4.58571336	          8.56450849	         -6.19579158	          9.94629693	         30.09714631	         -1.68692318	          2.53470914	         -3.27133288	          0.08844862	          0.15157884	          0.02640319	          0.00999999	          0.14634791	          0.10814067	          0.19836769	          0.04647040	          0.10092655	          0.00999999	          0.00999999	          0.03055539	          0.01821705	          0.28645988	          0.09154297	          0.00999999	          0.00999999	          0.05740924	          0.04548963	          0.01600072	          0.13305920	          0.05808891	          0.50580612	          0.00999999	          0.00999999	          0.36593271	          0.32753459	          0.01693128	
          0.02571780	         -7.87450890	         -4.30394654	          9.78195893	          0.03455619	          0.92291868	         -0.01642488	         31.38768458	          0.42173844	         -5.43914811	         -4.76049916	          5.86518970	          0.19529548	        -11.09910536	         -4.54016265	          8.09322919	         -7.56778890	          9.26517539	         32.07539344	         -1.37920088	          2.88563536	         -3.42570812	          0.07283828	          0.12482662	          0.02174328	          0.03446608	          0.12051891	          0.09862027	          0.16335769	          0.09881644	          0.08311398	          0.00999999	          0.00999999	          0.02516266	          0.01500191	          0.33754440	          0.09426012	          0.00999999	          0.00999999	          0.04727706	          0.04622829	          0.02011967	          0.10957553	          0.04783677	          0.48331921	          0.00999999	          0.01481409	          0.33568900	          0.30560684	          0.01394307	
          0.03857670	         -7.95080706	         -4.21927374	          9.70973732	          0.05231710	          0.92131320	         -0.01581071	         31.27483274	          0.56498125	         -5.05194470	         -6.26593433	          5.26100173	          0.17503501	        -11.16519488	         -4.45556857	          7.59447170	         -9.31482878	          8.38400777	         34.12394365	         -1.07243462	          3.23046173	         -3.55013966	          0.08558902	          0.10279592	          0.01790580	          0.09493069	          0.14178942	          0.08697072	          0.13452662	          0.14441428	          0.06844516	          0.00999999	          0.00999999	          0.02072169	          0.01235422	          0.37382218	          0.12546475	          0.00999999	          0.00999999	          0.03893311	          0.05035702	          0.02311200	          0.09023649	          0.03939404	          0.47315466	          0.01474557	          0.01790580	          0.28186937	          0.27950743	          0.01148225	
          0.05143560	         -8.00709868	         -4.12096524	          9.58073904	          0.07009724	          0.92033404	         -0.01510033	         31.04263885	          0.72434008	         -4.73342580	         -7.61744458	          4.75645052	          0.14448518	        -10.97963083	         -4.32619762	          7.06723377	        -11.52287029	          7.26785721	         36.18580763	         -0.78587087	          3.57085043	         -3.64016128	          0.08508083	          0.08465342	          0.01474559	          0.13703622	          0.16615265	          0.07350002	          0.11078396	          0.17642308	          0.05636524	          0.00999999	          0.00999999	          0.01706451	          0.01017382	          0.39760513	          0.15351485	          0.00999999	          0.00999999	          0.03206179	          0.06801354	          0.02264335	          0.07431061	          0.03244137	          0.44585628	          0.01214312	          0.01474559	          0.23212212	          0.23017704	          0.00999999	
          0.06429450	         -8.04208471	         -4.01525931	          9.39728419	          0.08770761	          0.92005093	         -0.01431804	         30.74166876	          0.89720805	         -4.46738001	         -8.90745865	          4.45623406	          0.12225085	        -10.48021429	         -4.15462621	          6.50296523	        -14.27915818	          5.93511590	         38.10171726	         -0.53403376	          3.91606798	         -3.69192499	          0.08326642	          0.06971290	          0.01214314	          0.16393033	          0.16185411	          0.06824424	          0.09123165	          0.18711225	          0.04641731	          0.00999999	          0.06494924	          0.01405279	          0.00999999	          0.40665220	          0.17553843	          0.00999999	          0.00999999	          0.02640319	          0.09509972	          0.03351834	          0.06119550	          0.02671578	          0.40016066	          0.00999999	          0.01214314	          0.19115478	          0.18955299	          0.00999999	
          0.07715340	         -8.05660810	         -3.90073476	          9.16181196	          0.10499203	          0.92049615	         -0.01350334	         30.35448164	          1.07735145	         -4.23041209	        -10.06597616	          4.29143294	          0.10178968	         -9.63411056	         -3.94190235	          5.88358603	        -17.61213113	          4.43191697	         39.55441309	         -0.32849033	          4.26759354	         -3.70325261	          0.06971292	          0.05740924	          0.00999999	          0.16911082	          0.13328841	          0.06250202	          0.07513013	          0.17373684	          0.03822510	          0.00999999	          0.14572509	          0.01157260	          0.00999999	          0.40689375	          0.18162265	          0.00999999	          0.00999999	          0.02174328	          0.11674460	          0.03206179	          0.05039508	          0.02200070	          0.33344727	          0.00999999	          0.00999999	          0.15741779	          0.15609870	          0.00999999	
          0.09001229	         -8.05260616	         -3.76809757	          8.87770803	          0.12185902	          0.92166562	         -0.01268592	         29.83880547	          1.25633075	         -3.98766571	        -11.00642391	          4.26538358	          0.08567878	         -8.44775023	         -3.69332534	          5.19710883	        -21.49024385	          2.88300804	         40.02904534	         -0.17736259	          4.61549941	         -3.67509167	          0.05740925	          0.04727706	          0.00999999	          0.16619129	          0.10976428	          0.05812710	          0.06187038	          0.15587141	          0.03147874	          0.00999999	          0.19613883	          0.00999999	          0.00999999	          0.39584051	          0.18763847	          0.00999999	          0.00999999	          0.01790580	          0.12787097	          0.02640319	          0.05062035	          0.01811778	          0.27459701	          0.00999999	          0.00999999	          0.12963506	          0.12854877	          0.00999999	
          0.10287119	         -8.03187585	         -3.60672682	          8.54672023	          0.13830446	          0.92349457	         -0.01188215	         29.16535494	          1.42415058	         -3.71112682	        -11.67782718	          4.37642596	          0.07583028	         -6.96841450	         -3.41880765	          4.45624992	        -25.78234543	          1.18570146	         39.48758085	         -0.07992402	          4.94585425	         -3.60837820	          0.04727707	          0.03893311	          0.00999999	          0.15993199	          0.09039193	          0.05516011	          0.05095085	          0.14014051	          0.02592304	          0.00999999	          0.21797637	          0.00999999	          0.00999999	          0.37916109	          0.18972976	          0.00999999	          0.00999999	          0.01474559	          0.13678829	          0.02174328	          0.06711740	          0.01492017	          0.22613326	          0.00999999	          0.00999999	          0.10675571	          0.10586114	          0.00999999	
